<?xml version="1.0" encoding="UTF-8" standalone="no"?>
<!-- Created with Inkscape (http://www.inkscape.org/) -->

<svg
   version="1.1"
   id="svg870"
   width="1420.0438"
   height="774.22034"
   viewBox="0 0 1420.0438 774.22034"
   sodipodi:docname="logo-3.svg"
   inkscape:version="1.1.2 (0a00cf5339, 2022-02-04)"
   xmlns:inkscape="http://www.inkscape.org/namespaces/inkscape"
   xmlns:sodipodi="http://sodipodi.sourceforge.net/DTD/sodipodi-0.dtd"
   xmlns="http://www.w3.org/2000/svg"
   xmlns:svg="http://www.w3.org/2000/svg">
  <defs
     id="defs874" />
  <sodipodi:namedview
     id="namedview872"
     pagecolor="#ffffff"
     bordercolor="#666666"
     borderopacity="1.0"
     inkscape:pageshadow="2"
     inkscape:pageopacity="0.0"
     inkscape:pagecheckerboard="0"
     showgrid="false"
     fit-margin-top="0"
     fit-margin-left="0"
     fit-margin-right="0"
     fit-margin-bottom="0"
     inkscape:zoom="0.19482422"
     inkscape:cx="1229.3133"
     inkscape:cy="1621.975"
     inkscape:window-width="1920"
     inkscape:window-height="1008"
     inkscape:window-x="0"
     inkscape:window-y="0"
     inkscape:window-maximized="1"
     inkscape:current-layer="g876" />
  <g
     inkscape:groupmode="layer"
     inkscape:label="Image"
     id="g876"
     transform="translate(-509.67853,273.92664)">
    <rect
       style="fill:none;stroke-width:4.91339;stroke-linecap:round"
       id="rect24818"
       width="1420.0438"
       height="774.22034"
       x="509.67853"
       y="-273.92664" />
    <path
       id="path960"
       style="fill:#fe4500;fill-opacity:1"
       d="m 1380.0564,73.484419 v 31.000001 31 h 5 5 v -13 -13 h 17.5 17.5 v -4.5 -4.5 h -17.5 -17.5 v -8.875001 -8.875 l 3.125,-0.625 c 1.7187,-0.3437 10.2687,-0.625 19,-0.625 h 15.875 v -4 -4 h -24 z m 68,0 v 19.9512 c 0,10.972901 0.4982,22.275901 1.1075,25.117101 1.6475,7.682 8.065,14.1647 16.8847,17.0567 1.3786,0.4519 5.7038,0.6805 9.6114,0.5078 8.968,-0.3963 15.4727,-3.3754 19.4961,-8.9297 5.0338,-6.9489 5.9003,-11.925 5.9003,-33.884801 v -19.8183 h -4.5 -4.5 l -0.025,18.75 c -0.025,19.851301 -0.689,25.050701 -3.7208,29.111301 -7.4377,9.962 -23.1191,9.1963 -28.6777,-1.4004 -1.8781,-3.5802 -2.1081,-6.0003 -2.3984,-25.210901 l -0.3203,-21.25 h -4.4297 z m 74,0 v 4.5 4.5 h 10.5 10.5 v 26.500001 26.5 h 4.5 4.5 v -26.5 -26.500001 h 10 10 v -4.5 -4.5 h -25 z m 70.8321,0 0.3574,22.25 c 0.2991,18.631301 0.647,22.900501 2.1367,26.250001 2.443,5.4927 6.2584,9.3085 12.1738,12.1777 h 0.01 c 4.3117,2.0912 6.1013,2.3738 13,2.0469 9.2437,-0.438 14.4665,-2.6442 19.3027,-8.1523 5.2204,-5.9458 6.1973,-11.3488 6.1973,-34.254001 v -20.3183 h -4.5 -4.5 l -0.01,19.25 c 0,10.587501 -0.471,20.923301 -1.0391,22.968701 -3.6869,13.2753 -20.5014,17.2398 -29.2129,6.8868 -4.0702,-4.8372 -4.7263,-8.9973 -4.7363,-29.855501 l -0.01,-19.25 h -4.5839 z m 79.1679,0 v 31.000001 31 h 4.5 4.5 v -11.5 -11.5 h 8.8926 c 6.4153,0 9.0334,0.3662 9.3965,1.3125 0.2769,0.7214 3.9738,5.8964 8.2148,11.5 l 7.711,10.1875 h 5.5137 c 6.3994,0 6.9691,1.6259 -4.8125,-13.7598 l -7.584,-9.9043 4.8144,-2.209 c 6.6855,-3.067 9.9454,-8.6837 9.9864,-17.207001 0.025,-5.2515 -0.4149,-6.8562 -2.8028,-10.2461 -1.5574,-2.2109 -4.8143,-5.0679 -7.2383,-6.3476 -4.15,-2.191 -5.478,-2.3262 -22.75,-2.3262 z m 75,0 v 31.000001 0 31 h 24.5 24.5 l -0.014,-3.25 c -0.01,-1.7875 -0.3459,-3.7 -0.75,-4.25 -0.4451,-0.6058 -8.2242,-1 -19.7344,-1 h -19 l -0.289,-9.25 -0.2871,-9.25 h 18.0957 18.0937 l -0.3066,-4.2324 -0.3067,-4.2325 -17.5,-0.0175 -17.5,-0.0176 v -9 -9 l 19.25,-0.2715 19.25,-0.2715 v -3.9785 -3.9785 h -24 z m -569,4 -39.25,0.0156 c -43.395,0.0163 -47.1528,0.4157 -57.9707,6.1817 -11.095,5.9135 -19.5806,18.334101 -21.7285,31.802701 -0.6022,3.7762 -1.0449,25.2523 -1.0449,51.25001 v 0 l -0.01,44.75 h 11.4825 11.4843 l 0.2657,-26.75 0.2675,-26.75 47.75,-0.2598 47.75,-0.2597 v -10.9903 -10.99021 h -48 -48 v -6.3184 c 0,-12.4873 4.933,-21.9289 13.4903,-25.8164 3.4103,-1.5493 6.7833,-1.8247 22.5976,-1.8437 10.2239,-0.0121 28.1114,-0.3173 39.75,-0.6797 l 21.1621,-0.6602 V 88.826219 Z m 97.6836,0 c -27.7797,0 -46.5305,0.4084 -50.25,1.0937 -13.02,2.3989 -23.4319,10.0911 -28.9941,21.42 -2.6863,5.471201 -2.9403,6.891201 -2.9395,16.486301 7e-4,9.3984 0.2927,11.1262 2.7891,16.459 5.1622,11.02741 11.2684,16.67291 22.543,20.84961 5.199,1.926 8.398,2.1459 38.6679,2.6465 31.6822,0.5239 33.1397,0.6327 36.5,2.7265 4.9022,3.0547 7.3932,7.7308 7.4512,13.9883 0.054,5.8356 -1.9348,9.3323 -7.4414,13.0801 -3.2593,2.218 -3.7608,2.25 -35.5,2.25 -17.7062,0 -39.0142,0.2954 -47.3516,0.6562 l -15.1582,0.6563 v 10.8789 10.8789 l 49.75,-0.2852 49.75,-0.2851 6.5469,-3.1016 c 11.7014,-5.545 18.501,-13.5731 21.541,-25.4316 5.0238,-19.5961 -5.2744,-39.2447 -24.2031,-46.17971 -5.4264,-1.9881 -8.4218,-2.2016 -38.3848,-2.7402 -35.6189,-0.6402 -36.0113,-0.7066 -41.2871,-6.9766 -3.8578,-4.5846 -4.404,-10.1206 -1.5566,-15.7969 4.6215,-9.2132 1.6087,-8.6983 54.6641,-9.3164 25.6731,-0.2992 46.7921,-0.6367 46.9296,-0.75 0.1375,-0.1134 0.25,-5.382001 0.25,-11.707001 v -11.5 z m 405.3164,4 h 12.0489 c 13.4801,0 16.8891,1.0462 19.4336,5.9668 3.243,6.2713 1.3506,12.2981 -4.7266,15.056601 -3.387,1.5374 -6.5559,1.9381 -15.5059,1.9551 l -11.25,0.0215 V 92.984419 Z m -6.8632,83.000011 c -5.7683,0 -12.7547,3.3602 -14.6641,7.0527 -1.9222,3.7172 -1.8795,9.9217 0.088,12.7305 2.1316,3.0432 6.4785,5.1349 15.832,7.6172 5.9466,1.5781 8.3979,2.7534 9.8692,4.7343 1.7491,2.3551 1.8109,2.94 0.5839,5.5 -0.9224,1.9247 -2.6756,3.2913 -5.3398,4.1641 -6.1914,2.0285 -10.5931,0.8504 -18.7422,-5.0195 -1.4535,-1.047 -2.0915,-0.8968 -3.918,0.9297 -1.9169,1.9168 -2.0093,2.3908 -0.7636,3.8965 0.7797,0.9425 3.6679,2.7628 6.4179,4.0449 3.695,1.7226 6.7864,2.3298 11.8477,2.3398 11.6863,0.017 17.6523,-4.3731 17.6523,-12.9902 0,-8.0369 -4.1303,-11.4139 -17.75,-14.5117 -5.3931,-1.2266 -7.7415,-2.2976 -9.2558,-4.2227 -6.2439,-7.9378 7.9612,-14.1771 17.5156,-7.6933 l 3.791,2.5722 2.0352,-2.0371 c 1.9607,-1.9607 1.9715,-2.1096 0.25,-4.0117 -2.376,-2.6256 -9.8644,-5.0957 -15.4492,-5.0957 z m -107.6973,0.053 c -2.1888,0.07 -4.36,0.3794 -6.4375,0.9414 -5.8081,1.5712 -13.3343,8.905 -14.8848,14.5059 -2.3106,8.3464 -0.7966,17.9308 3.8672,24.4805 1.1153,1.5664 4.3645,4.0111 7.2188,5.4335 7.7257,3.8499 17.364,3.676 24.5468,-0.4433 2.8875,-1.656 5.25,-3.3823 5.25,-3.836 0,-0.4537 -0.8596,-1.6019 -1.9101,-2.5527 -1.8191,-1.6462 -2.0933,-1.6118 -5.75,0.752 -4.9863,3.2233 -9.2308,4.041 -14.127,2.7226 -5.3415,-1.4383 -9.0914,-4.5796 -11.3164,-9.4785 -3.8746,-8.5311 -1.1141,-19.5711 6.1035,-24.4082 4.9288,-3.3033 14.1903,-2.7868 19.25,1.0723 l 3.4903,2.6621 2.3105,-2.459 c 2.2677,-2.4139 2.2742,-2.4877 0.3789,-3.9727 -4.7135,-3.6927 -11.4238,-5.6304 -17.9902,-5.4199 z m -165.334,0.125 c -4.0655,-0.4523 -8.19,0.1694 -11.8183,1.9258 -4.975,2.4084 -7.2872,6.098 -7.2872,11.625 0,7.0387 3.4041,9.7616 16.627,13.3047 8.9679,2.403 11.373,4.1062 11.373,8.0508 0,3.5118 -2.0341,5.5456 -7.0449,7.0468 -4.8083,1.4406 -10.691,0.01 -15.8027,-3.8535 l -3.3477,-2.5273 -2.0703,2.0703 c -1.8161,1.8161 -1.8958,2.2822 -0.6523,3.7852 0.7797,0.9425 3.6679,2.7628 6.4179,4.0449 3.6815,1.7164 6.7897,2.3298 11.7891,2.3398 12.0818,0.017 18.4888,-5.3909 17.4375,-14.7187 -0.8316,-7.3775 -3.3143,-9.0826 -19.9707,-13.7227 -6.9452,-1.9349 -9.4811,-4.8652 -7.6621,-8.8574 2.4002,-5.2679 12.5999,-6.1806 18.9043,-1.6914 l 3.1816,2.2637 2.1602,-2.1895 2.1601,-2.1895 -2.9316,-2.1914 c -3.3909,-2.5373 -7.3973,-4.0633 -11.4629,-4.5156 z m 403.2168,0.6348 -0.6563,15.8437 c -0.8417,20.2251 -0.8408,29.837 0,30.6778 v 0 c 0.3666,0.3667 1.9416,0.666 3.5,0.666 h 2.834 v -8 -8 h 10.3515 c 9.0979,0 10.7638,-0.2746 13.75,-2.2695 4.8113,-3.2142 7.1065,-8.1052 6.5938,-14.0547 -0.4405,-5.1118 -2.5587,-8.7371 -7.0781,-12.1133 -2.3954,-1.7895 -4.5119,-2.1076 -16.0274,-2.4063 z m -368.3223,0.1875 v 23.5644 23.5625 l 3.1661,-0.3125 3.166,-0.3144 -0.2285,-7.6367 -0.2286,-7.6368 11.0079,-0.3769 c 9.1539,-0.3133 11.4803,-0.7229 13.8125,-2.4336 9.1122,-6.6835 8.1919,-21.1989 -1.6582,-26.166 -3.905,-1.9692 -5.9955,-2.25 -16.75,-2.25 z m 169,0 v 23.5 23.5 l 14.25,-0.012 c 18.6399,-0.014 21.75,-0.5269 21.75,-3.5918 0,-2.3382 -0.027,-2.3429 -14.75,-2.6192 l -14.75,-0.2773 -0.2949,-7.25 -0.2929,-7.25 h 13.5429 13.5449 v -3 -3 h -13.5 -13.5 v -7 -7 h 14.5 14.5 v -3 -3 h -17.5 z m 107,0 v 22.916 c 0,17.4423 0.2986,23.0178 1.25,23.3379 0.6875,0.2316 2.0375,0.2164 3,-0.033 1.518,-0.3937 1.75,-1.7648 1.75,-10.3379 v -9.8828 h 13 13 v 10.5644 10.5625 l 3.25,-0.3125 3.25,-0.3144 0.2676,-23.25 0.2676,-23.25 h -3.5176 -3.5176 v 10.0293 10.0312 l -12.75,-0.2812 -12.75,-0.2793 -0.2871,-9.75 -0.2851,-9.75 h -2.9649 z m 62,0 v 23.5 23.5 h 3 3 v -23.5 -23.5 h -3 z m -271.0429,0.5 -7.8262,17.5 c -4.3042,9.625 -8.9993,19.8084 -10.4336,22.6289 -1.4342,2.8205 -2.3282,5.408 -1.9863,5.75 1.021,1.021 3.7944,0.7066 5.5527,-0.6289 0.9052,-0.6875 2.5489,-3.3875 3.6543,-6 l 2.0098,-4.75 h 12.3984 12.4004 l 2.6914,6 c 2.3546,5.2467 3.0421,6 5.4707,6 1.5275,0 3.0198,-0.2425 3.3164,-0.5391 0.2965,-0.2966 -4.0852,-10.7591 -9.7383,-23.25 l -10.2793,-22.7109 h -3.6152 z m -60.9571,5.5 h 8.4512 c 4.6492,0 9.5501,0.4986 10.8906,1.1094 6.2047,2.827 6.6484,13.2936 0.6934,16.373 -1.9537,1.0103 -5.797,1.5176 -11.4863,1.5176 h -8.5489 v -9.5 z m 368,0 h 9.0762 c 8.6991,0 9.1986,0.1224 12,2.9238 2.2481,2.2481 2.9238,3.8384 2.9238,6.8887 0,5.0763 -2.407,8.0329 -7.5,9.2129 -4.6596,1.0796 -14.8639,1.2788 -15.834,0.3086 -0.3667,-0.3666 -0.666,-4.8666 -0.666,-10 z m -303.5507,1.2441 c 0.1707,-0.1928 6.0393,12.9122 9.3828,20.9532 0.1834,0.4408 -3.9855,0.8027 -9.2637,0.8027 h -9.5957 l 1.4043,-3.25 c 0.7725,-1.7875 2.8533,-6.625 4.625,-10.75 1.7717,-4.125 3.3231,-7.6156 3.4473,-7.7559 z" />
    <path
       id="path960-3"
       style="fill:#fe4500;fill-opacity:1;stroke-width:0.624249"
       d="m 984.93105,-156.28146 c -3.7885,-0.059 -7.888,0.43415 -10.9098,1.50088 -8.63263,3.04739 -8.43393,2.85647 -58.60016,56.259239 -54.19438,57.69085 -63.80463,67.85392 -76.04379,80.42086 -6.97012,7.15674 -15.67837,16.1085105 -19.3517,19.8930705 -13.95902,14.3815195 -36.64844,35.0772195 -51.62492,47.0893195 -17.30076,13.8764 -66.08708,48.9231 -68.10291,48.9231 -0.27042,0 -2.42538,-1.1488 -4.78917,-2.553 -2.36378,-1.4043 -4.34701,-2.4578 -4.40631,-2.341 -0.0596,0.1168 -0.79307,1.572 -1.63013,3.2347 -1.62854,3.2346 -4.24656,5.602301 -7.41905,6.708201 l -1.96419,0.6852 0.37308,6.34 0.37309,6.3413 -3.10783,4.0576 c -3.80674,4.9702 -5.1271,6.1786 -7.42272,6.7912 -1.49813,0.3998 -1.83831,0.8768 -2.12391,2.9798 -0.21155,1.5574 -1.17069,3.5465 -2.53723,5.2622 -1.20842,1.5171 -3.72394,4.9308 -5.5902,7.5861 -1.86632,2.6552 -3.56072,4.8323 -3.76622,4.8379 -0.20544,0.01 -0.69459,-2.3078 -1.08756,-5.1403 -2.916,-21.0212 -2.31746,-37.8682 2.07026,-58.211201 0.88868,-4.1201 1.78097,-8.2552 1.98248,-9.1894 0.34696,-1.6087 0.10999,-1.8151 -4.4685,-3.9016 -2.6588,-1.2116 -5.04364,-2.2031 -5.30003,-2.2031 -0.74166,0 -4.21561,13.9347 -5.60238,22.4729 -3.38019,20.811601 -3.05164,40.823401 0.98026,59.782901 l 0.96442,4.5355 1.67157,-1.1875 c 3.16556,-2.2493 12.91518,-7.6725 16.65356,-9.2638 8.10606,-3.4503 17.35507,-6.6139 29.01173,-9.9221 32.34435,-9.1794 49.94466,-16.3993 68.80885,-28.2266 18.68209,-11.713101 40.20641,-30.830401 57.30535,-50.895801 l 4.68187,-5.4939 3.77351,0.3646 c 8.19046,0.7897 17.79322,4.5061 24.36401,9.4308 7.41908,5.5605 13.51793,13.049 15.59649,19.1493 l 0.97421,2.8579 -4.74286,8.7249 c -11.86679,21.830301 -20.74861,45.860201 -24.92122,67.427401 -4.25107,21.97262 -4.74823,40.05252 -1.92518,70.05132 2.0152,21.4143 2.3292,40.83404 0.75958,46.97474 -0.50464,1.9742 -0.77706,3.5895 -0.60596,3.5895 0.17105,0 3.5757,-0.728 7.56541,-1.618 18.06939,-4.0308 37.64697,-12.4646 55.3204,-23.82994 7.9613,-5.1197 7.71135,-4.3114 2.73721,-8.82 l -4.31612,-3.9113 -5.45245,3.3919 c -12.68056,7.8867 -16.16593,9.6546 -28.55085,14.48574 -6.28238,2.4507 -12.87127,4.5722 -17.36798,5.5914 l -1.76307,0.4 1.8057,-2.6775 c 4.77788,-7.08014 10.84384,-18.74724 15.18562,-29.20684 2.86037,-6.8909 3.36894,-7.6392 5.66337,-8.3371 0.56445,-0.1718 1.80583,-1.3341 2.75787,-2.5824 l 1.73136,-2.269 -1.86183,-1.8617 -1.86176,-1.8606 1.44726,-5.7462 c 0.79598,-3.1603 3.95237,-15.9996 7.01425,-28.5314 12.30533,-50.36402 20.50372,-74.26612 39.82517,-116.110421 14.84296,-32.1454 52.40295,-110.86472 60.61305,-127.0347 1.046,-2.06002 5.8874,-12.0324 10.7586,-22.16085 17.56655,-36.525249 18.41885,-38.891619 17.93365,-49.799719 -0.2736,-6.15294 -0.419,-6.72113 -3.0407,-11.8461 -1.5145,-2.96068 -3.0352,-5.4676 -3.37846,-5.5707 -0.3434,-0.10309 -4.90679,5.9189 -10.14169,13.38235 -8.5209,12.14847 -13.3126,19.08164 -33.01929,47.777009 -3.9465,5.74657 -5.3176,8.21759 -4.88425,8.80289 0.33129,0.44752 1.50694,2.00805 2.61161,3.46873 3.16382,4.1834 4.65172,8.90057 4.63673,14.69789 -0.007,2.7467 -0.28197,5.69628 -0.60964,6.55462 l -0.59497,1.56062 -0.43036,-1.87274 c -1.19044,-5.18347 -4.21031,-10.24019 -8.76021,-14.66986 -3.16632,-3.08266 -2.81649,-3.13309 -5.4854,0.79738 -0.70672,1.04085 -0.89755,1.00561 -3.09441,-0.56816 -2.7,-1.93424 -2.78465,-2.27699 -1.09243,-4.42827 0.68667,-0.87296 1.2485,-1.78869 1.2485,-2.0349 0,-0.76207 -8.24347,-4.28897 -11.80705,-5.0513 -1.85921,-0.39773 -4.94924,-0.5516 -6.86675,-0.34261 l -3.48705,0.37918 2.497,-1.56306 c 6.69188,-4.19044 15.17075,-4.84054 24.41276,-1.87031 1.51805,0.48788 0.43835,1.87688 16.49753,-21.212279 5.97001,-8.58343 15.87998,-22.73538 22.02178,-31.44899 8.4904,-12.04544 10.9653,-15.97249 10.3246,-16.38411 -1.777,-1.14148 -5.2547,-1.75276 -9.0431,-1.81178 z M 812.36757,-48.453381 c -13.98664,-0.45348 -29.93458,0.84128 -42.97078,3.65771 -31.6038,6.82791 -64.73707,25.75945 -85.16613,48.6609605 -6.44275,7.2225195 -12.52196,14.6375195 -12.20577,14.8881195 0.39877,0.3161 10.98754,2.2705 12.21431,2.2543 0.63081,-0.01 2.69479,-1.8944 4.6392,-4.2392 3.5531,-4.2848 10.49144,-10.5705995 9.77462,-8.8553995 -0.21524,0.515 -1.69098,3.8521995 -3.27975,7.4166995 -1.58884,3.5644 -2.76596,6.8019 -2.61526,7.1947 0.15069,0.3927 5.29328,1.7745 11.4279,3.07 11.4596,2.4201 42.02127,9.6721 54.22678,12.8678 3.77671,0.9889 7.14765,1.8168 7.49099,1.8399 1.30836,0.088 21.55387,-17.6286 35.26032,-30.8564995 8.8051,-8.49761002 45.44729,-45.9526505 48.3257,-49.3973505 0.91091,-1.09011 1.40463,-2.1381 1.09606,-2.32875 -1.22852,-0.75929 -17.72181,-4.1332 -25.06629,-5.1281 -4.046,-0.5481 -8.48968,-0.89373 -13.1519,-1.04489 z m 96.11487,1.12779 c 4.72157,0.006 5.873,0.24461 9.55151,1.98126 5.33196,2.51728 9.42273,6.60798 11.89732,11.8961 1.63822,3.50078 1.93992,4.88095 1.93367,8.86385 -0.008,5.10651 -1.08625,8.30538 -4.68917,13.92002 -1.04849,1.6340005 -2.08755,2.9602605 -2.30922,2.9469005 -0.22174,-0.0134 -1.07727,-1.40848 -1.90078,-3.1005205 -3.97359,-8.1643 -15.47114,-17.19126 -26.70376,-20.96478 -2.46391,-0.82773 -5.48372,-1.50454 -6.71068,-1.50454 -1.22696,0 -2.21814,-0.21068 -2.20316,-0.46818 0.0152,-0.25751 1.6454,-2.43458 3.62239,-4.83794 2.79914,-3.40272 4.54079,-4.85325 7.86891,-6.55461 3.91068,-1.99916 4.73025,-2.1838 9.64297,-2.17756 z m -109.13875,12.70689 c 0.92991,-0.13459 2.62837,-0.043 5.97181,0.14874 9.70302,0.55626 16.3146,3.57164 14.65035,6.68142 -1.05648,1.97412 -4.28182,4.38753 -6.7948,5.08544 -5.31117,1.47505 -11.43652,-0.63325 -14.33579,-4.93547 -1.5236,-2.26088 -1.70972,-3.52047 -0.85468,-5.76943 0.27183,-0.71492 0.43319,-1.07611 1.36311,-1.2107 z m -11.20967,17.1132 c 2.62225,0.0805 4.18347,3.60157 1.91054,5.65849 -1.4196,1.28475 -1.95986,1.28985 -3.74915,0.0366 -2.06395,-1.44566 -1.67574,-4.68917 0.65839,-5.50486 0.40984,-0.14322 0.80561,-0.2017 1.18022,-0.1902 z m 86.38901,0.98637 5.30612,0.28774 c 13.93611,0.75443 28.2067,10.9536005 32.528,23.2484105 l 1.18514,3.3711895 -13.53478,21.7036 c -7.4443,11.9369 -14.90358,23.951 -16.57669,26.6977 -3.45335,5.6691 -4.22592,6.6219 -4.22592,5.2158 0,-1.8491 -5.18277,-8.9947 -9.90871,-13.6603 -7.96167,-7.86 -17.20686,-12.8898 -27.37189,-14.8905 l -5.19026,-1.0217 11.5925,-15.6002 c 6.37583,-8.5805 14.87817,-20.0446295 18.89452,-25.4759295 z M 743.24904,-5.6667005 c 3.62308,-0.29085 6.36868,1.04813 8.75412,4.26976 2.97168,4.01346 1.44465,10.96135 -3.01517,13.7176495 -3.27357,2.0232 -6.30363,2.1715 -9.61003,0.4694 -4.08652,-2.1037 -5.80162,-4.9639995 -5.46827,-9.1162395 0.27935,-3.47969002 1.52375,-5.70515 4.38437,-7.84091 0.98263,-0.73364 2.99047,-1.34196 4.95498,-1.49966 z m 202.70177,27.8181095 -2.7957,5.7426 -2.79451,5.7426 4.32586,8.5237 c 4.00044,7.884 9.42835,20.5203 9.42835,21.9475 0,1.2744 -5.96077,0.6303 -9.22715,-0.9974 -3.64356,-1.8157 -8.40034,-6.7517 -10.33064,-10.7195 -0.7099,-1.4592 -1.44589,-2.6461 -1.63497,-2.6372 -0.34921,0.016 -5.03457,10.3269 -10.97555,24.1519 l -3.27731,7.6263 2.07144,1.2217 c 4.26076,2.5138 5.53179,6.8924 3.28218,11.3059 -2.03443,3.9914 -5.00379,5.3845 -9.28446,4.3576 -1.72692,-0.4143 -3.21245,-0.6512 -3.30171,-0.5267 -0.37998,0.53 -9.72986,25.563501 -10.9743,29.382401 l -1.36436,4.1844 3.04808,4.5551 c 1.67598,2.5048 6.54038,9.7614 10.80975,16.1256 4.26937,6.3642 9.90502,14.93202 12.524,19.03962 2.61904,4.1075 6.99896,10.9792 9.73317,15.2709 2.73415,4.2917 6.6304,10.6776 8.65902,14.1907 2.02856,3.513 3.85131,6.3923 4.05032,6.3986 0.86908,0.027 10.50892,-17.2052 13.4384,-24.0226 22.12663,-51.49322 17.62223,-110.185821 -11.93508,-155.530821 z m -296.33916,1.9922 c -10.49225,0 -16.22599,1.7222 -21.8353,6.5595 -3.07418,2.6511 -13.74262,16.7468 -25.97584,34.3215 l -3.04688,4.3771 3.359,-3.1895 c 16.50128,-15.6665 28.86551,-19.567 45.1837,-14.2566 9.70763,3.1592 31.12325,14.2631 53.37331,27.6743 2.91836,1.759 5.64979,3.0688 6.06936,2.9103 3.63182,-1.3725 51.30045,-36.1932 50.56053,-36.9331 -0.48461,-0.4846 -36.75734,-9.2676 -53.75128,-13.0154 -29.21036,-6.442 -42.01662,-8.4481 -53.9366,-8.4481 z m 308.96436,56.0825 c 0.96009,0.1216 1.35106,2.3704 2.35797,8.3188 3.79369,22.410601 3.27369,43.317901 -1.58497,63.725901 l -1.5972,6.7107 -5.09519,-0.041 c -13.96046,-0.1126 -24.316,-7.0837 -29.14707,-19.6224 -1.17646,-3.0533 -1.4422,-4.957 -1.44844,-10.3002 -0.007,-7.828 1.20792,-11.7769 5.46218,-17.7386 4.53005,-6.3483 10.06496,-9.6974 18.31778,-11.0841 l 4.52824,-0.760801 0.006,-4.4039 c 0.008,-5.4861 1.78023,-9.6195 5.60238,-13.0653 1.24138,-1.1192 2.02213,-1.8116 2.59819,-1.7387 z m -286.30971,0.4986 c -0.95155,-0.3651 -1.27761,0.3001 -0.5194,1.0583 0.5966,0.5966 1.45577,0.5131 1.45577,-0.1414 0,-0.3066 -0.42137,-0.7192 -0.93637,-0.9169 z m 2.76644,3.57 c -0.44459,0.1545 -0.80916,0.4994 -1.25459,1.09 -2.18063,2.8908 -1.93595,7.2868 0.50842,9.143 1.59458,1.2109 4.34528,0.9305 5.75846,-0.5864 2.97286,-3.191 1.11591,-8.6323 -3.27488,-9.5966 -0.76817,-0.1688 -1.29282,-0.2046 -1.73741,-0.05 z m 92.4657,45.590901 c -1.04447,0.035 -2.05975,0.1441 -3.04444,0.3255 -5.41068,0.997 -7.94996,2.3935 -15.85739,8.7261 -3.69062,2.9556 -9.03096,6.7281 -11.86805,8.3823 -4.63311,2.7014 -5.44462,2.9733 -7.96771,2.6725 -13.34314,-1.5905 -16.27805,-1.751 -26.21847,-1.4314 -31.43944,1.0111 -57.7576,11.7975 -81.68276,33.47662 -19.78377,17.9266 -34.29184,45.8208 -38.49497,74.015 -1.32391,8.88214 -1.35165,25.86994 -0.0561,34.46054 4.77932,31.6916 21.23963,59.4352 47.19666,79.5492 18.19867,14.1019 40.44099,23.0331 63.36129,25.443 32.48625,3.4157 66.24432,-7.4011 92.72784,-29.7116 27.27089,-22.9737 44.31371,-59.3885 44.28999,-94.6347 -0.0137,-20.36844 -4.15563,-36.59484 -14.70643,-57.60784 l -5.98158,-11.9119 1.04855,-6.1913 c 0.57668,-3.4047 2.05247,-9.561 3.27975,-13.681 1.7133,-5.7517 2.24138,-8.6587 2.27509,-12.5179 0.0404,-4.61962 -0.15064,-5.42042 -2.3641,-9.89912 -3.1705,-6.4149 -9.694,-12.9562 -19.29564,-19.3504 -10.53649,-7.0169 -19.33025,-10.36 -26.64154,-10.1136 z m 129.89627,13.2299 c -0.96028,-0.5935 -16.31706,57.45282 -16.31706,61.67642 0,0.1435 6.6706,5.9763 14.8223,12.9629 28.93357,24.7978 39.493,37.0109 41.91122,48.47194 1.93679,9.1794 -0.54797,22.1265 -6.50093,33.8741 -0.85891,1.695 -1.4359,3.0822 -1.28265,3.0822 0.52531,0 20.84306,-29.0248 23.59712,-33.7094 5.01665,-8.5333 6.03343,-12.6903 4.89642,-20.01874 -1.39588,-8.9965 -6.25772,-20.5731 -14.4528,-34.4129 -8.71527,-14.7183 -25.18733,-40.6818 -34.10205,-53.75252 -3.32475,-4.8748 -7.39167,-10.8815 -9.03701,-13.3495 -1.64527,-2.4679 -3.23535,-4.6396 -3.53456,-4.8245 z m 26.62935,16.0001 c 0.97458,-0.2669 2.15291,0.1435 2.96637,1.385 0.77413,1.1814 0.84199,1.8054 0.30482,2.8092 -1.29013,2.41062 -5.01715,1.282 -5.01715,-1.5192 0,-1.4643 0.77138,-2.4081 1.74596,-2.675 z m 24.10551,0.8547 c 1.3053,-0.2513 2.15353,0.4154 2.85669,2.1129 0.5906,1.4258 0.54634,2.1203 -0.23166,3.62482 -0.52936,1.0236 -1.41817,2.0362 -1.97394,2.2495 -1.51,0.5794 -1.79871,0.5014 -3.28705,-0.8852 -2.2398,-2.08672 -1.70981,-5.06092 1.16679,-6.54852 0.54834,-0.2836 1.03407,-0.4698 1.46917,-0.5535 z m -247.71963,26.37942 c 9.62673,0.229 17.88439,1.7933 27.78884,5.0806 33.72338,11.1926 57.86026,37.9892 65.60713,72.83714 1.16173,5.2259 1.36764,8.0995 1.38262,19.2518 0.0163,12.2182 -0.10229,13.6154 -1.7362,20.5515 -5.20829,22.1093 -15.17872,39.0678 -31.60627,53.7597 -12.576,11.2474 -27.27114,18.6946 -44.3217,22.4596 -3.24915,0.7174 -8.6936,1.1074 -17.7911,1.2765 -17.57261,0.3266 -23.34659,-0.6622 -39.02167,-6.6863 -12.98788,-4.9913 -23.35968,-11.9227 -34.35078,-22.9557 -16.37512,-16.4375 -25.1248,-35.3808 -27.47916,-59.4927 -1.14961,-11.7735 0.64357,-26.2821 4.73796,-38.32924 2.50267,-7.3638 8.57702,-19.1544 13.28236,-25.7819 17.44259,-24.5676 44.78845,-40.1481 73.31271,-41.7698 3.62463,-0.2062 6.98635,-0.2776 10.19526,-0.2012 z m 241.50641,4.7526 c 0.12872,0.043 0.094,0.2497 -0.0549,0.6376 -0.20069,0.523 -0.75553,0.951 -1.23383,0.951 -1.2194,0 -1.08257,-0.4667 0.3645,-1.2412 0.50359,-0.2695 0.79548,-0.3904 0.9242,-0.3474 z m -245.30433,12.424 c -14.66643,-0.5813 -26.59175,1.9483 -39.97634,8.4798 -9.37142,4.5732 -16.34311,9.6567 -24.12382,17.5899 -11.88595,12.1188 -19.08939,26.1131 -22.4559,43.62314 -1.31124,6.8199 -0.97613,22.9282 0.634,30.465 2.47914,11.6046 5.80371,19.1358 13.32748,30.192 3.56153,5.2338 11.9264,13.9379 14.94053,15.5465 1.40556,0.7501 1.39323,0.6892 -0.26702,-1.3461 -11.71697,-14.3632 -17.17569,-26.8469 -18.66895,-42.6915 -0.60602,-6.4305 -0.55341,-8.6098 0.36211,-15.0064 2.39194,-16.7116 8.70154,-29.6257 20.17593,-41.29564 14.00797,-14.2466 35.62947,-22.2363 54.80348,-20.2502 18.21309,1.8865 32.37014,8.7059 44.2144,21.2964 10.91268,11.60024 16.87332,24.81874 18.54824,41.14074 1.39626,13.6062 -2.19466,29.6752 -9.33813,41.7905 -9.71275,16.4729 -25.72545,28.2259 -44.99715,33.0267 -5.73941,1.4298 -7.87453,1.6368 -17.16685,1.6643 -8.05051,0.024 -11.86822,-0.244 -15.81473,-1.1083 -2.86124,-0.6266 -5.33131,-1.0099 -5.48899,-0.8522 -0.8669,0.8668 12.05691,4.8627 19.5346,6.04 6.02469,0.9485 23.44574,0.2756 29.54821,-1.1412 20.85804,-4.8427 38.99661,-17.2638 51.11772,-35.0055 6.25891,-9.1611 10.18292,-18.2742 12.64958,-29.3799 1.23976,-5.5819 1.45416,-8.2684 1.44479,-18.1032 -0.0102,-10.4092 -0.17496,-12.1992 -1.67035,-18.1411 -4.11024,-16.33224 -11.53248,-29.63654 -22.96554,-41.16994 -6.53514,-6.5925 -13.9629,-11.9832 -22.16085,-16.0817 -12.41438,-6.2066 -22.2548,-8.7292 -36.20645,-9.2821 z m 188.82564,26.7073 c -0.2228,0.01 -0.39915,0.188 -0.62057,0.5463 -0.29452,0.4765 -0.39734,1.0916 -0.22804,1.3655 0.41825,0.6767 2.73109,0.6344 2.73109,-0.05 0,-0.3013 -0.44278,-0.9152 -0.98394,-1.3643 -0.40682,-0.3377 -0.67575,-0.5048 -0.89854,-0.4975 z m -8.07379,6.779 c -1.42473,0 -3.41627,0.4278 -4.42581,0.9498 -3.36882,1.7421 -5.46349,8.2791 -3.70529,11.5645 0.35201,0.6576 1.40543,1.6113 2.34093,2.119 2.27845,1.2364 4.31069,1.1781 7.36908,-0.2109 3.5923,-1.6316 5.25612,-3.9714 5.25612,-7.3898 0,-2.3376 -0.34147,-3.1299 -2.12145,-4.9099 -1.73186,-1.7318 -2.59994,-2.1227 -4.71358,-2.1227 z m -188.86709,1.0925 c -15.09123,-0.016 -27.66978,4.4899 -39.07045,13.9968 -10.64014,8.87284 -16.69582,18.25994 -20.40149,31.61974 -1.47691,5.3246 -1.67117,7.1129 -1.63621,15.0917 0.0351,7.9827 0.2408,9.7151 1.73619,14.6699 2.52552,8.3681 6.0853,15.2668 10.13917,19.6455 3.20621,3.463 8.35814,7.77 6.71312,5.6121 -3.95043,-5.1817 -5.24536,-7.2433 -7.24958,-11.5352 -3.90468,-8.3614 -5.05171,-13.6783 -5.11226,-23.7104 -0.0453,-7.5262 0.1524,-9.3895 1.41675,-13.4214 5.49533,-17.5238 17.77075,-30.2485 34.42515,-35.68344 5.02359,-1.6394 7.17119,-1.9806 14.04561,-2.2336 6.78122,-0.2497 9.00878,-0.086 13.55182,0.9997 23.87328,5.70524 39.44203,25.75594 39.32892,50.65084 -0.0401,8.8129 -1.46459,14.8351 -5.39025,22.7851 -5.13482,10.3987 -12.38452,17.4502 -23.76902,23.1204 -9.00604,4.4854 -13.74565,5.4944 -26.0624,5.5487 -5.7509,0.026 -10.45618,0.093 -10.45618,0.1512 1.3e-4,0.2807 8.17742,2.7348 10.92436,3.2785 5.13046,1.0155 18.63065,0.3483 23.99214,-1.1863 12.80398,-3.6648 23.40267,-10.9169 31.32951,-21.4366 8.99774,-11.9409 12.90713,-24.6767 12.24723,-39.9008 -1.1626,-26.8238 -19.74049,-49.43364 -46.35903,-56.42024 -5.16804,-1.3564 -7.60889,-1.6354 -14.3431,-1.6422 z" />
  </g>
</svg>
